<svg width="40" height="40" viewBox="0 0 40 40" fill="none" xmlns="http://www.w3.org/2000/svg">
<path d="M19.8 6.79998C19.3 5.59998 18.4 4.79998 17.1 4.19998L11.4 1.99998C6.70001 4.19998 3.50001 7.69998 1.60001 12.6C1.20001 13.6 0.90001 14.6 0.60001 15.7C1.70001 15.7 2.70001 15.9 3.80001 16.4L11.1 19.4C12.4 19.9 13.6 19.9 14.8 19.4C16 18.9 16.8 18.1 17.3 16.8L19.8 10.5C20.4 9.29998 20.3 7.99998 19.8 6.79998ZM12.1 36.3L21.5 40C27.8 39.5 32.7 36.7 36.4 31.6C36.3 31.1 36.2 30.6 36 30C35.4 28.8 34.5 27.9 33.2 27.4L26.3 24.6C26.1 24.7 25.9 24.7 25.8 24.8C25.6 24.9 25.4 24.9 25.1 24.9C23.7 24.9 22.6 23.8 22.6 22.4C22.6 21 23.7 19.9 25.1 19.9C26.3 19.9 27.2 20.7 27.5 21.8L34.3 24.6C35.5 25.1 36.8 25.1 38.1 24.6C38.7 24.3 39.2 24 39.6 23.6C40.6 18 39.4 13 36.1 8.39998L25 3.79998L26 1.39998L26.2 0.899983C22.9 -0.100017 19.3 -0.300016 15.9 0.499984L18.3 1.49998C20.4 2.19998 21.9 3.69998 22.8 5.69998C23.7 7.69998 23.8 9.69998 23 11.7L20.4 18C19.6 20 18.1 21.4 16.1 22.2C14.1 23 12 23 10 22.2L2.70001 19.2C-0.299989 18.2 -0.0999892 19.4 0.200011 21.8C0.500011 24.7 1.30001 27.4 2.80001 30C4.80001 33.5 7.90001 36.4 11.5 38.1" fill="#00A0DB"/>
</svg>
