<?xml version="1.0" encoding="utf-8"?>
<!-- Generator: Adobe Illustrator 19.0.0, SVG Export Plug-In . SVG Version: 6.00 Build 0)  -->
<svg version="1.1" xmlns="http://www.w3.org/2000/svg" xmlns:xlink="http://www.w3.org/1999/xlink" x="0px" y="0px" width="360px"
	 height="80px" viewBox="0 0 360 80" style="enable-background:new 0 0 360 80;" xml:space="preserve">
<style type="text/css">
	.st0{opacity:0;fill:#4D4D4D;}
	.st1{clip-path:url(#XMLID_41_);fill:#00A0DB;}
	.st2{opacity:0;}
	.st3{fill:#D9E021;}
	.st4{fill:#00A0DB;}
</style>
<g id="Layer_1">
	<g id="XMLID_630_">
		<rect id="XMLID_641_" class="st0" width="80" height="80"/>
		<g id="XMLID_636_">
			<defs>
				<path id="XMLID_637_" d="M39.8,26.8c-0.5-1.2-1.4-2-2.7-2.6L31.4,22c-4.7,2.2-7.9,5.7-9.8,10.6c-0.4,1-0.7,2-1,3.1
					c1.1,0,2.1,0.2,3.2,0.7l7.3,3c1.3,0.5,2.5,0.5,3.7,0c1.2-0.5,2-1.3,2.5-2.6l2.5-6.3C40.4,29.3,40.3,28,39.8,26.8 M32.1,56.3
					l9.4,3.7c6.3-0.5,11.2-3.3,14.9-8.4c-0.1-0.5-0.2-1-0.4-1.6c-0.6-1.2-1.5-2.1-2.8-2.6l-6.9-2.8c-0.2,0.1-0.4,0.1-0.5,0.2
					c-0.2,0.1-0.4,0.1-0.7,0.1c-1.4,0-2.5-1.1-2.5-2.5c0-1.4,1.1-2.5,2.5-2.5c1.2,0,2.1,0.8,2.4,1.9l6.8,2.8c1.2,0.5,2.5,0.5,3.8,0
					c0.6-0.3,1.1-0.6,1.5-1c1-5.6-0.2-10.6-3.5-15.2L45,23.8l1-2.4l0.2-0.5c-3.3-1-6.9-1.2-10.3-0.4l2.4,1c2.1,0.7,3.6,2.2,4.5,4.2
					c0.9,2,1,4,0.2,6L40.4,38c-0.8,2-2.3,3.4-4.3,4.2c-2,0.8-4.1,0.8-6.1,0l-7.3-3c-3-1-2.8,0.2-2.5,2.6c0.3,2.9,1.1,5.6,2.6,8.2
					c2,3.5,5.1,6.4,8.7,8.1"/>
			</defs>
			<use xlink:href="#XMLID_637_"  style="overflow:visible;fill:#00A0DB;"/>
			<clipPath id="XMLID_41_">
				<use xlink:href="#XMLID_637_"  style="overflow:visible;"/>
			</clipPath>
			<rect id="XMLID_640_" x="19.6" y="19.7" class="st1" width="41" height="41.8"/>
		</g>
		<g id="XMLID_631_" class="st2">
			<rect id="XMLID_635_" class="st3" width="20" height="20"/>
			<rect id="XMLID_634_" x="60" class="st3" width="20" height="20"/>
			<rect id="XMLID_633_" y="60" class="st3" width="20" height="20"/>
			<rect id="XMLID_632_" x="60" y="60" class="st3" width="20" height="20"/>
		</g>
	</g>
	<g id="XMLID_80_">
		<rect id="XMLID_560_" x="60" class="st0" width="300" height="80"/>
		<g id="XMLID_86_">
			<g id="XMLID_233_">
				<path id="XMLID_234_" class="st4" d="M322.9,51.8h-15.2v-2.9l2.7-2.9c4.6-4.7,7.3-7.8,7.3-11c0-2.1-1.1-3.8-3.8-3.8
					c-1.8,0-3.4,0.9-4.5,1.7l-1.3-3.4c1.5-1.1,4-2.2,6.8-2.2c5.2,0,7.6,3.3,7.6,7.2c0,4.2-2.9,7.7-6.5,11.2l-2,2v0.1h8.9V51.8z"/>
			</g>
			<g id="XMLID_230_">
				<path id="XMLID_231_" class="st4" d="M335.1,38.9c2.7,0.6,4.9,2.8,4.9,6c0,4-3.2,7.2-8.9,7.2c-2.6,0-4.9-0.7-6.1-1.5l1.1-3.5
					c0.9,0.6,2.9,1.3,4.7,1.3c2.9,0,4.4-1.8,4.4-3.7c0-2.7-2.4-4-5-4h-1.6v-3.3h1.5c1.9,0,4.3-1,4.3-3.4c0-1.7-1.1-2.9-3.4-2.9
					c-1.7,0-3.3,0.7-4.2,1.3l-1-3.4c1.3-0.8,3.7-1.6,6.3-1.6c4.7,0,7.1,2.7,7.1,5.9C339.2,35.8,337.7,37.9,335.1,38.9L335.1,38.9z"
					/>
			</g>
			<g id="XMLID_87_">
				<path id="XMLID_226_" class="st4" d="M80,30.9c1.3-0.3,3.9-0.4,6.4-0.4c3,0,4.9,0.3,6.5,1.2c1.5,0.8,2.6,2.3,2.6,4.2
					c0,1.9-1.1,3.7-3.6,4.6v0.1c2.5,0.7,4.4,2.5,4.4,5.3c0,2-0.9,3.5-2.3,4.6c-1.6,1.2-4.3,2-8.6,2c-2.4,0-4.3-0.2-5.4-0.3V30.9z
					 M84.9,39.1h1.6c2.6,0,4-1.1,4-2.7c0-1.6-1.3-2.5-3.5-2.5c-1.1,0-1.7,0.1-2.1,0.1V39.1z M84.9,48.7c0.5,0.1,1.1,0.1,1.9,0.1
					c2.2,0,4.2-0.8,4.2-3.1c0-2.2-2-3-4.5-3h-1.7V48.7z"/>
				<path id="XMLID_223_" class="st4" d="M99.6,30.9c1.6-0.3,4-0.4,6.6-0.4c3.2,0,5.5,0.5,7.1,1.7c1.3,1,2,2.5,2,4.5
					c0,2.8-2,4.6-3.9,5.3V42c1.5,0.6,2.4,2,2.9,4c0.7,2.4,1.4,5.3,1.8,6.1h-5.1c-0.4-0.6-0.9-2.4-1.5-5c-0.6-2.7-1.5-3.4-3.5-3.5
					h-1.5v8.5h-4.9V30.9z M104.5,40.1h1.9c2.5,0,3.9-1.2,3.9-3.1c0-2-1.4-3-3.6-3c-1.2,0-1.9,0.1-2.2,0.2V40.1z"/>
				<path id="XMLID_220_" class="st4" d="M124.3,46.6l-1.6,5.5h-5.1l6.7-21.6h6.5l6.8,21.6h-5.3l-1.7-5.5H124.3z M129.9,43l-1.4-4.6
					c-0.4-1.3-0.8-2.9-1.1-4.2h-0.1c-0.3,1.3-0.6,2.9-1,4.2L125,43H129.9z"/>
				<path id="XMLID_218_" class="st4" d="M145.5,30.6v21.6h-5V30.6H145.5z"/>
				<path id="XMLID_216_" class="st4" d="M149.8,52.1V30.6h5.8l4.5,7.9c1.3,2.3,2.6,5,3.6,7.4h0.1c-0.3-2.9-0.4-5.8-0.4-9v-6.3h4.5
					v21.6h-5.2l-4.7-8.3c-1.3-2.3-2.7-5.1-3.8-7.6l-0.1,0c0.1,2.8,0.2,5.9,0.2,9.4v6.5H149.8z"/>
				<path id="XMLID_214_" class="st4" d="M178.9,47.1c1.3,0.7,3.4,1.3,5.5,1.3c2.3,0,3.5-0.9,3.5-2.3c0-1.3-1-2.1-3.7-3
					c-3.6-1.2-6-3.2-6-6.4c0-3.7,3.1-6.5,8.3-6.5c2.5,0,4.3,0.5,5.6,1.1l-1.1,3.9c-0.9-0.4-2.4-1-4.6-1c-2.1,0-3.2,1-3.2,2.1
					c0,1.4,1.2,2,4.1,3c3.9,1.4,5.7,3.4,5.7,6.4c0,3.6-2.8,6.7-8.8,6.7c-2.5,0-5-0.6-6.2-1.3L178.9,47.1z"/>
				<path id="XMLID_212_" class="st4" d="M200.5,34.7h-5.9v-4.1h16.8v4.1h-6v17.5h-5V34.7z"/>
				<path id="XMLID_209_" class="st4" d="M216.9,46.6l-1.6,5.5h-5.1l6.7-21.6h6.5l6.8,21.6h-5.3l-1.7-5.5H216.9z M222.4,43l-1.4-4.6
					c-0.4-1.3-0.8-2.9-1.1-4.2h-0.1c-0.3,1.3-0.7,2.9-1,4.2l-1.3,4.6H222.4z"/>
				<path id="XMLID_205_" class="st4" d="M234.6,34.7h-5.9v-4.1h16.8v4.1h-6v17.5h-5V34.7z"/>
				<path id="XMLID_201_" class="st4" d="M253.2,30.6v21.6h-5V30.6H253.2z"/>
				<path id="XMLID_90_" class="st4" d="M277.5,41.1c0,7.1-4.4,11.4-10.8,11.4c-6.5,0-10.3-4.8-10.3-11c0-6.5,4.2-11.3,10.7-11.3
					C273.9,30.2,277.5,35.2,277.5,41.1z M261.7,41.4c0,4.2,2,7.2,5.3,7.2c3.3,0,5.3-3.1,5.3-7.3c0-3.9-1.9-7.2-5.3-7.2
					C263.7,34.1,261.7,37.2,261.7,41.4z"/>
				<path id="XMLID_88_" class="st4" d="M280.8,52.1V30.6h5.8l4.5,7.9c1.3,2.3,2.6,5,3.6,7.4h0.1c-0.3-2.9-0.4-5.8-0.4-9v-6.3h4.5
					v21.6h-5.2l-4.7-8.3c-1.3-2.3-2.7-5.1-3.8-7.6l-0.1,0c0.1,2.8,0.2,5.9,0.2,9.4v6.5H280.8z"/>
			</g>
		</g>
		<g id="XMLID_81_" class="st2">
			<rect id="XMLID_85_" x="60" y="7.5" class="st3" width="20" height="20"/>
			<rect id="XMLID_84_" x="340" y="7.5" class="st3" width="20" height="20"/>
			<rect id="XMLID_83_" x="60" y="52.5" class="st3" width="20" height="20"/>
			<rect id="XMLID_82_" x="340" y="52.5" class="st3" width="20" height="20"/>
		</g>
	</g>
</g>
<g id="Layer_2">
</g>
</svg>
